<?xml version="1.0" encoding="UTF-8" standalone="no"?>
<!-- Created with Inkscape (http://www.inkscape.org/) -->

<svg
   width="100mm"
   height="100mm"
   viewBox="0 0 100 100"
   version="1.1"
   id="svg1"
   inkscape:version="1.3.2 (091e20e, 2023-11-25, custom)"
   sodipodi:docname="pfp.svg"
   inkscape:export-filename="pfp.png"
   inkscape:export-xdpi="130.048"
   inkscape:export-ydpi="130.048"
   xmlns:inkscape="http://www.inkscape.org/namespaces/inkscape"
   xmlns:sodipodi="http://sodipodi.sourceforge.net/DTD/sodipodi-0.dtd"
   xmlns="http://www.w3.org/2000/svg"
   xmlns:svg="http://www.w3.org/2000/svg">
  <sodipodi:namedview
     id="namedview1"
     pagecolor="#ffffff"
     bordercolor="#000000"
     borderopacity="0.25"
     inkscape:showpageshadow="2"
     inkscape:pageopacity="0.0"
     inkscape:pagecheckerboard="0"
     inkscape:deskcolor="#d1d1d1"
     inkscape:document-units="mm"
     inkscape:zoom="1.4142136"
     inkscape:cx="122.68302"
     inkscape:cy="186.67619"
     inkscape:window-width="1368"
     inkscape:window-height="850"
     inkscape:window-x="-6"
     inkscape:window-y="-6"
     inkscape:window-maximized="1"
     inkscape:current-layer="layer4"
     showgrid="false" />
  <defs
     id="defs1">
    <clipPath
       clipPathUnits="userSpaceOnUse"
       id="clipPath54">
      <path
         id="path54"
         style="stroke-width:0.0999999;stroke-linecap:square;paint-order:markers fill stroke;stop-color:#000000"
         d="m 1691.1994,-792.32001 h 1634.8919 v 92.82806 H 1691.1994 Z" />
    </clipPath>
    <clipPath
       clipPathUnits="userSpaceOnUse"
       id="clipPath2">
      <path
         id="path2"
         style="stroke-width:0.1;stroke-linecap:square;paint-order:markers fill stroke;stop-color:#000000"
         d="m -880.82767,-187.29769 h 1640.84 v 73.28155 h -1640.84 z" />
    </clipPath>
    <clipPath
       clipPathUnits="userSpaceOnUse"
       id="clipPath52">
      <path
         id="path52"
         style="stroke-width:0.1;stroke-linecap:square;paint-order:markers fill stroke;stop-color:#000000"
         d="m -880.82767,-187.29769 h 1640.84 v 73.28155 h -1640.84 z" />
    </clipPath>
    <inkscape:path-effect
       effect="fillet_chamfer"
       id="path-effect2"
       is_visible="true"
       lpeversion="1"
       nodesatellites_param="F,0,0,1,0,0,0,1 @ F,0,0,1,0,0,0,1 @ F,0,0,1,0,0,0,1 @ F,0,0,1,0,0,0,1 @ F,0,0,1,0,0,0,1 @ F,0,0,1,0,0,0,1 @ F,0,0,1,0,0,0,1 @ F,0,0,1,0,0,0,1 @ F,0,0,1,0,0,0,1 @ F,0,0,1,0,0,0,1 @ F,0,0,1,0,0,0,1 @ F,0,0,1,0,0,0,1 @ F,0,0,1,0,0,0,1 @ F,0,0,1,0,0,0,1 @ F,0,0,1,0,0,0,1 @ F,0,0,1,0,0,0,1 @ F,0,0,1,0,0,0,1 @ F,0,0,1,0,0,0,1 @ F,0,0,1,0,0,0,1 @ F,0,0,1,0,0,0,1 @ F,0,0,1,0,0,0,1 @ F,0,0,1,0,0,0,1 @ F,0,0,1,0,0,0,1 @ F,0,0,1,0,0,0,1 @ F,0,0,1,0,0,0,1 @ F,0,0,1,0,0,0,1 @ F,0,0,1,0,0,0,1 @ F,0,0,1,0,0,0,1 @ F,0,0,1,0,0,0,1 @ F,0,0,1,0,0,0,1 @ F,0,0,1,0,0,0,1 @ F,0,0,1,0,0,0,1 @ F,0,0,1,0,0,0,1 @ F,0,0,1,0,0,0,1 @ F,0,0,1,0,0,0,1 @ F,0,0,1,0,0,0,1 @ F,0,0,1,0,0,0,1 @ F,0,0,1,0,0,0,1 @ F,0,0,1,0,0,0,1 @ F,0,0,1,0,0,0,1 @ F,0,0,1,0,0,0,1 @ F,0,0,1,0,0,0,1 @ F,0,0,1,0,0,0,1 @ F,0,0,1,0,0,0,1 @ F,0,0,1,0,0,0,1 @ F,0,0,1,0,0,0,1 @ F,0,0,1,0,0,0,1 @ F,0,0,1,0,0,0,1 @ F,0,0,1,0,0,0,1 @ F,0,0,1,0,0,0,1 @ F,0,0,1,0,0,0,1 @ F,0,0,1,0,0,0,1 @ F,0,0,1,0,0,0,1 @ F,0,0,1,0,0,0,1 @ F,0,0,1,0,0,0,1 @ F,0,0,1,0,0,0,1 @ F,0,0,1,0,0,0,1 @ F,0,0,1,0,0,0,1 @ F,0,0,1,0,0,0,1 @ F,0,0,1,0,0,0,1 @ F,0,0,1,0,0,0,1 @ F,0,0,1,0,0,0,1 @ F,0,0,1,0,0,0,1 @ F,0,0,1,0,0,0,1 @ F,0,0,1,0,0,0,1 @ F,0,0,1,0,0,0,1 @ F,0,0,1,0,0,0,1 @ F,0,0,1,0,0,0,1 @ F,0,0,1,0,0,0,1 @ F,0,0,1,0,0,0,1 @ F,0,0,1,0,0,0,1 @ F,0,0,1,0,0,0,1 @ F,0,0,1,0,0,0,1 @ F,0,0,1,0,0,0,1 @ F,0,0,1,0,0,0,1 | F,0,0,1,0,0,0,1 @ F,0,0,1,0,0,0,1 @ F,0,0,1,0,0,0,1 @ F,0,0,1,0,0,0,1 @ F,0,0,1,0,0,0,1 @ F,0,0,1,0,0,0,1 @ F,0,0,1,0,0,0,1 @ F,0,0,1,0,0,0,1 @ F,0,0,1,0,0,0,1 @ F,0,0,1,0,0,0,1 @ F,0,0,1,0,0,0,1 @ F,0,0,1,0,0,0,1 @ F,0,0,1,0,0,0,1 @ F,0,0,1,0,0,0,1 @ F,0,0,1,0,0,0,1 @ F,0,0,1,0,0,0,1 @ F,0,0,1,0,0,0,1 @ F,0,0,1,0,0,0,1 @ F,0,0,1,0,0,0,1 @ F,0,0,1,0,0,0,1 @ F,0,0,1,0,0,0,1 @ F,0,0,1,0,0,0,1 @ F,0,0,1,0,0,0,1 | F,0,0,1,0,0,0,1 @ F,0,0,1,0,0,0,1 @ F,0,0,1,0,0,0,1 @ F,0,0,1,0,0,0,1 @ F,0,0,1,0,0,0,1 @ F,0,0,1,0,0,0,1 @ F,0,0,1,0,0,0,1 @ F,0,0,1,0,0,0,1 @ F,0,0,1,0,0,0,1 @ F,0,0,1,0,0,0,1 @ F,0,0,1,0,0,0,1 @ F,0,0,1,0,0,0,1 @ F,0,0,1,0,0,0,1 @ F,0,0,1,0,0,0,1 @ F,0,0,1,0,0,0,1 @ F,0,0,1,0,0,0,1 @ F,0,0,1,0,0,0,1 @ F,0,0,1,0,0,0,1 @ F,0,0,1,0,0,0,1 @ F,0,0,1,0,0,0,1 @ F,0,0,1,0,0,0,1 @ F,0,0,1,0,0,0,1 @ F,0,0,1,0,0,0,1 @ F,0,0,1,0,0,0,1 @ F,0,0,1,0,0,0,1 @ F,0,0,1,0,0,0,1 @ F,0,0,1,0,0,0,1 @ F,0,0,1,0,0,0,1 @ F,0,0,1,0,0,0,1 @ F,0,0,1,0,0,0,1 @ F,0,0,1,0,0,0,1 @ F,0,0,1,0,0,0,1 @ F,0,0,1,0,0,0,1 @ F,0,0,1,0,0,0,1 @ F,0,0,1,0,0,0,1 @ F,0,0,1,0,0,0,1 @ F,0,0,1,0,0,0,1 @ F,0,0,1,0,0,0,1 @ F,0,0,1,0,0,0,1 @ F,0,0,1,0,0,0,1"
       radius="0"
       unit="px"
       method="auto"
       mode="F"
       chamfer_steps="1"
       flexible="false"
       use_knot_distance="true"
       apply_no_radius="true"
       apply_with_radius="true"
       only_selected="false"
       hide_knots="false" />
  </defs>
  <g
     inkscape:groupmode="layer"
     id="layer4"
     inkscape:label="Main">
    <path
       style="display:inline;fill:#aa0000;fill-opacity:1;stroke:#aa0000;stroke-width:0.299973;stroke-opacity:1"
       id="path5-0-4"
       d="m 45.630645,39.66516 c -0.917299,-0.121881 -0.144649,-0.0051 -1.356965,-0.245197 -0.283697,-0.0562 -1.723345,-0.423512 -1.991479,-0.54413 -0.699423,-0.314631 -0.882771,-0.540934 -1.645611,-1.022267 -0.727334,-0.497964 -1.219169,-0.80767 -1.785613,-1.447303 -2.222237,-2.509382 -4.151841,-5.748932 -5.020812,-9.222146 -0.191715,-0.766257 -0.266408,-1.565084 -0.399609,-2.347622 -0.0249,-0.780496 -0.103909,-1.561189 -0.07468,-2.341484 0.139169,-3.715962 1.451603,-7.215094 3.233595,-10.258195 0.639129,-0.90727 0.949432,-1.460158 1.718557,-2.174727 0.719631,-0.668588 1.597226,-1.0685997 2.52836,-1.0796717 0.334982,-0.004 0.695574,-0.04456 0.999878,0.11678 1.23473,0.6546927 1.133692,0.8165147 1.987555,2.0866697 0.28224,0.419844 0.469372,0.914068 0.704059,1.371101 0.187141,0.509666 0.405476,1.005586 0.561421,1.528995 0.36819,1.235753 0.651753,2.8756 0.81028,4.13917 0.459706,3.664162 0.532914,7.378682 0.44084,11.073878 -0.08635,1.755812 -0.131363,3.514975 -0.259057,5.267443 -0.614076,8.427397 -1.910224,16.997806 -4.479883,24.945031 -0.612882,1.895469 -1.38758,3.716213 -2.081371,5.574322 -0.802053,1.67528 -1.514757,3.411582 -2.406156,5.025845 -1.487721,2.694176 -3.151341,5.107442 -5.301108,7.129188 -1.330703,1.251456 -2.771649,2.186817 -4.478727,2.52576 -0.580291,0.115223 -1.408505,-0.02551 -2.227136,-0.272077 C 23.7322,78.738777 22.623339,77.358334 20.604716,74.935815 18.841237,72.619218 17.014521,70.299787 15.732132,67.575084 L 11.904767,65.63086 c 1.666824,2.722292 3.550267,5.244363 5.466098,7.734624 1.199379,1.458072 2.368157,2.978404 3.689366,4.29652 0.404942,0.404 0.809748,0.816153 1.263821,1.143601 1.458333,1.051678 2.919737,2.110867 4.463276,2.986478 0.495881,0.281302 1.073182,0.305749 1.609776,0.45862 0.600208,-0.03154 1.216152,0.06581 1.800623,-0.09462 1.692376,-0.4644 3.016995,-1.605517 4.238846,-2.995553 3.252532,-3.700211 4.995287,-8.177575 7.018692,-12.799188 0.663153,-1.886717 1.415119,-3.735187 1.989458,-5.660159 0.621816,-2.084089 1.114689,-4.217654 1.594243,-6.351028 0.972629,-4.326897 1.64671,-8.33134 2.250184,-12.740342 0.565517,-4.131693 0.800652,-6.931834 1.19823,-11.024636 0.231755,-3.549398 0.484315,-7.116948 0.323185,-10.679743 -0.05144,-1.137409 -0.206679,-2.871304 -0.467995,-4.016422 -0.12066,-0.528738 -0.315403,-1.03128 -0.473103,-1.546922 -0.471185,-1.00283 -0.781903,-1.790191 -1.420733,-2.667624 -0.556641,-0.76455 -1.360723,-1.577847 -2.10971,-2.085314 -4.126898,-2.7961407 -2.908886,-2.2770067 -5.505542,-3.1654927 -0.36226,-0.02298 -0.724522,-0.09182 -1.086788,-0.06891 -1.012237,0.06401 -1.95752,0.524152 -2.702119,1.312455 -0.752767,0.796949 -1.03281,1.415966 -1.61731,2.4110567 -1.32407,2.555001 -2.344198,5.286633 -2.82951,8.219931 -0.128859,0.77885 -0.241898,1.565024 -0.27954,2.356703 -0.038,0.799124 0.03558,1.600122 0.05337,2.400182 0.13064,0.804238 0.197673,1.625709 0.391913,2.412724 0.855859,3.467752 2.908143,6.935151 5.084503,9.483988 0.548913,0.642853 1.158208,1.213399 1.73731,1.820097 2.618958,2.049413 4.136679,3.0707 7.833292,4.665135 1.203741,0.519196 3.589122,0.338098 4.795807,0.244027 2.42152,-0.188787 4.13007,-0.785248 6.491519,-1.435254 5.393828,-1.897839 10.687101,-4.221735 15.694936,-7.223792 0.826134,-0.495247 1.631205,-1.035777 2.446807,-1.553666 0.699922,-0.559239 1.439193,-1.058227 2.099767,-1.67771 0.635505,-0.595976 1.214104,-1.270964 1.776538,-1.957477 1.387242,-1.693287 2.528575,-3.619431 3.335142,-5.75706 0.193069,-0.511687 0.327037,-1.050339 0.490556,-1.575508 0.35291,-1.971729 0.376699,-3.869658 -0.79376,-5.500221 -0.152762,-0.212813 -0.202979,-0.281411 -0.510295,-0.583754 -1.843454,-1.504993 -3.80007,-3.610114 -6.131425,-2.887433 -0.806206,0.249913 -0.867726,0.421515 -1.557512,1.002248 -0.298072,0.444211 -0.630038,0.860822 -0.894212,1.33263 -0.589821,1.053404 -1.734772,3.605562 -2.091082,4.691351 -0.612163,1.865439 -1.362897,5.314272 -1.638788,7.222466 -0.229158,1.584941 -0.337024,3.19 -0.505534,4.784999 -0.09876,1.847785 -0.215629,3.6944 -0.296262,5.543346 -0.202367,4.640579 -0.234051,6.231524 -0.160863,10.857344 0.06257,3.954597 0.187872,5.798656 0.32408,9.694108 0.04661,1.333058 0.07977,2.666694 0.119648,4.000043 -0.03051,2.392104 0.03081,4.35596 -0.31965,6.712629 -0.486505,3.271601 -1.510948,6.621437 -3.291475,9.268878 -0.695125,1.033575 -1.565352,1.893814 -2.348031,2.840715 -2.334634,2.000293 -2.948487,2.884244 -5.784078,3.887234 -3.390159,1.199136 -7.184297,1.02049 -10.543763,-0.220958 -1.123627,-0.415222 -2.163804,-1.085333 -3.245704,-1.627998 -0.19277,-0.209503 -0.380801,-0.424945 -0.578305,-0.628519 -2.947588,-3.038092 -3.034428,-2.825982 -5.540784,-6.350459 -1.521559,-2.139646 -2.811998,-4.358535 -4.049937,-6.721414 -0.529797,-1.011229 -1.008129,-2.057058 -1.512193,-3.085589 -1.132139,-2.462685 -2.096221,-5.023079 -2.885437,-7.656709 -0.07023,-0.234319 -0.66634,-2.323113 -0.692612,-2.798134 l 0.685983,0.455821 c 1.811132,1.409793 3.628708,2.810403 5.484103,4.141653 5.61781,4.0308 9.153497,6.280568 15.201402,9.775842 2.45549,1.419103 4.965585,2.709224 7.448378,4.063836 2.359811,1.135178 4.705699,2.30957 7.079441,3.405539 4.306787,1.988469 7.213346,3.205208 11.561182,4.788009 3.873292,1.410039 7.800604,2.577431 11.743933,3.689949 3.242844,0.866133 1.720055,0.470905 4.566869,1.193335 l -2.780253,-2.421331 v 0 C 86.039305,82.886047 87.422588,83.161701 84.465182,82.528004 81.684465,81.861811 80.707888,81.660488 77.830037,80.818644 70.26042,78.604358 62.868066,75.660054 55.713919,72.047245 50.62116,69.288464 46.588353,67.24961 41.717135,64.062183 c -2.120002,-1.387197 -4.189891,-2.877131 -6.227364,-4.41969 -1.51277,-1.145309 -2.97151,-2.384294 -4.417214,-3.639265 -0.755284,-0.655642 -1.371911,-1.526636 -2.181822,-2.089168 -1.510467,-1.04911 -3.157962,-1.810883 -4.736944,-2.716324 -0.0076,0.274719 -0.07285,0.555396 -0.02287,0.82416 0.08457,0.454676 1.025509,3.194493 1.100954,3.409287 0.948796,2.701156 1.982017,5.366539 3.236702,7.900899 0.54277,1.054492 1.063179,2.124686 1.62831,3.163481 1.974839,3.630065 4.172257,7.143068 6.773378,10.219716 0.890813,1.053664 1.773933,2.139089 2.810333,2.998162 1.718086,1.424123 3.610202,2.546714 5.415302,3.820074 1.091513,0.523838 2.142932,1.176335 3.274532,1.571516 3.350127,1.16997 7.34614,1.308079 10.704847,0.101244 2.814705,-1.011376 3.52578,-1.996762 5.822158,-4.006779 1.897871,-2.185818 3.041399,-3.157563 4.297118,-5.911474 0.433145,-0.949933 0.67534,-2.00201 0.948963,-3.027651 0.283634,-1.063175 0.569353,-2.133283 0.720925,-3.231731 0.303809,-2.20173 0.137219,-4.712443 0.07742,-6.909918 -0.775176,-10.022285 -1.51705,-20.148831 -0.228282,-30.16246 0.253291,-1.532746 0.464306,-3.075569 0.759868,-4.598245 0.785492,-4.046678 1.959902,-8.098312 4.341086,-11.29573 0.30456,-0.40896 0.677195,-0.743523 1.015792,-1.115286 0.40937,-0.28012 1.21379,-0.722354 1.896567,-0.815517 0.41123,0.543638 0.715533,2.886863 0.715533,2.886863 -0.0036,0.48386 -0.07979,0.963383 -0.11967,1.445074 -0.352981,1.540552 -0.370576,1.91364 -1.026655,3.416049 -1.379488,3.158996 -3.541434,5.675523 -6.085039,7.616762 -0.775516,0.540295 -1.535404,1.111533 -2.326547,1.620891 -2.043536,1.315668 -3.535896,2.089173 -5.694393,3.174976 -3.196304,1.607863 -6.45255,3.066467 -9.834627,4.076949 -2.61475,0.63689 -4.204779,1.213708 -6.863182,1.323942 z"
       sodipodi:nodetypes="csscsscccscsscssccscssscccccssscsscssscsscssccscsscsscsscscssscscscssscssscsscsscssscsccsscsscccscscssssccscssscsscsssccssccccscssccc"
       inkscape:label="G" />
    <path
       style="display:inline;fill:#e61e1e;fill-opacity:1;stroke:#e61e1e;stroke-width:0.299973;stroke-opacity:1"
       id="path5-0-4-8"
       d="m 44.130643,38.46516 c -0.917299,-0.121881 -0.144649,-0.0051 -1.356965,-0.245197 -0.283697,-0.0562 -1.723345,-0.423512 -1.991479,-0.54413 -0.699423,-0.314631 -0.882771,-0.540934 -1.645611,-1.022267 -0.727334,-0.497964 -1.219169,-0.80767 -1.785613,-1.447303 -2.222237,-2.509382 -4.151841,-5.748932 -5.020812,-9.222146 -0.191715,-0.766257 -0.266408,-1.565084 -0.399609,-2.347622 -0.0249,-0.780496 -0.103909,-1.561189 -0.07468,-2.341484 0.139169,-3.715962 1.451603,-7.215094 3.233595,-10.258195 0.639129,-0.90727 0.949432,-1.4601578 1.718557,-2.1747265 0.719631,-0.6685882 1.597226,-1.0686002 2.52836,-1.0796722 0.334982,-0.004 0.695574,-0.04456 0.999878,0.11678 1.23473,0.6546932 1.133692,0.8165152 1.987555,2.0866699 0.28224,0.4198438 0.469372,0.9140678 0.704059,1.3711008 0.187141,0.509666 0.405476,1.005586 0.561421,1.528995 0.36819,1.235753 0.651753,2.8756 0.81028,4.13917 0.459706,3.664162 0.532914,7.378682 0.44084,11.073878 -0.08635,1.755812 -0.131363,3.514975 -0.259057,5.267443 -0.614076,8.427397 -1.910224,16.997806 -4.479883,24.945031 -0.612882,1.895469 -1.38758,3.716213 -2.081371,5.574322 -0.802053,1.67528 -1.514757,3.411582 -2.406156,5.025845 -1.487721,2.694176 -3.151341,5.107442 -5.301108,7.129188 -1.330703,1.251456 -2.771649,2.186817 -4.478727,2.52576 -0.580291,0.115223 -1.408505,-0.02551 -2.227136,-0.272077 -1.374783,-0.755746 -2.483644,-2.136189 -4.502267,-4.558708 -1.763479,-2.316597 -3.590195,-4.636028 -4.872584,-7.360731 L 10.404766,64.43086 c 1.666823,2.722292 3.550266,5.244363 5.466097,7.734624 1.199379,1.458072 2.368157,2.978404 3.689366,4.29652 0.404942,0.404 0.809748,0.816153 1.263821,1.143601 1.458333,1.051678 2.919737,2.110867 4.463276,2.986478 0.495881,0.281302 1.073182,0.305749 1.609776,0.45862 0.600208,-0.03154 1.216152,0.06581 1.800623,-0.09462 1.692376,-0.4644 3.016995,-1.605517 4.238846,-2.995553 3.252532,-3.700211 4.995287,-8.177575 7.018692,-12.799188 0.663153,-1.886717 1.415119,-3.735187 1.989458,-5.660159 0.621816,-2.084089 1.114689,-4.217654 1.594243,-6.351028 0.972629,-4.326897 1.64671,-8.33134 2.250184,-12.740342 0.565517,-4.131693 0.800652,-6.931834 1.19823,-11.024636 0.231755,-3.549398 0.484315,-7.116948 0.323185,-10.679743 -0.05144,-1.137409 -0.206679,-2.871304 -0.467995,-4.016422 -0.12066,-0.528738 -0.315403,-1.03128 -0.473103,-1.546922 C 45.89828,12.13926 45.587562,11.351899 44.948732,10.474466 44.392091,9.7099162 43.588009,8.8966195 42.839022,8.3891525 38.712124,5.5930113 39.930136,6.1121453 37.33348,5.2236593 c -0.36226,-0.02298 -0.724522,-0.09182 -1.086788,-0.06891 -1.012237,0.06401 -1.95752,0.524152 -2.702119,1.312455 -0.752767,0.796949 -1.03281,1.415966 -1.61731,2.4110572 -1.32407,2.5550005 -2.344198,5.2866325 -2.82951,8.2199305 -0.128859,0.77885 -0.241898,1.565024 -0.27954,2.356703 -0.038,0.799124 0.03558,1.600122 0.05337,2.400182 0.13064,0.804238 0.197673,1.625709 0.391913,2.412724 0.855859,3.467752 2.908143,6.935151 5.084503,9.483988 0.548913,0.642853 1.158208,1.213399 1.73731,1.820097 2.618958,2.049413 4.136679,3.0707 7.833292,4.665135 1.203741,0.519196 3.589122,0.338098 4.795807,0.244027 2.42152,-0.188787 4.130075,-0.785248 6.491515,-1.435254 5.39383,-1.897839 10.6871,-4.221735 15.69494,-7.223792 0.82613,-0.495247 1.6312,-1.035777 2.44681,-1.553666 0.69992,-0.559239 1.43919,-1.058227 2.09976,-1.67771 0.63551,-0.595976 1.21411,-1.270964 1.77654,-1.957477 1.38724,-1.693287 2.52858,-3.619431 3.33514,-5.75706 0.19307,-0.511687 0.32704,-1.050339 0.49056,-1.575508 0.35291,-1.971729 0.3767,-3.869658 -0.79376,-5.500221 -0.15276,-0.212813 -0.20298,-0.281411 -0.5103,-0.583754 -1.84345,-1.504993 -3.80007,-3.6101138 -6.13142,-2.887433 -0.80621,0.249913 -0.86773,0.421515 -1.55751,1.002248 -0.29807,0.444211 -0.63004,0.860822 -0.89421,1.33263 -0.58982,1.053404 -1.73478,3.605562 -2.09109,4.691351 -0.61216,1.865439 -1.36289,5.314272 -1.63878,7.222466 -0.22916,1.584941 -0.33703,3.19 -0.50554,4.784999 -0.0988,1.847785 -0.21563,3.6944 -0.29626,5.543346 -0.20237,4.640579 -0.23405,6.231524 -0.16086,10.857344 0.0626,3.954597 0.18787,5.798656 0.32408,9.694108 0.0466,1.333058 0.0798,2.666694 0.11964,4.000043 -0.0305,2.392104 0.0308,4.35596 -0.31964,6.712629 -0.48651,3.271601 -1.51095,6.621437 -3.29148,9.268878 -0.69512,1.033575 -1.56535,1.893814 -2.34803,2.840715 -2.33464,2.000293 -2.94849,2.884244 -5.78408,3.887234 -3.39016,1.199136 -7.184296,1.02049 -10.543762,-0.220958 -1.123627,-0.415222 -2.163804,-1.085333 -3.245704,-1.627998 -0.19277,-0.209503 -0.380801,-0.424945 -0.578305,-0.628519 -2.947588,-3.038092 -3.034428,-2.825982 -5.540784,-6.350459 -1.521559,-2.139646 -2.811998,-4.358535 -4.049937,-6.721414 -0.529797,-1.011229 -1.008129,-2.057058 -1.512193,-3.085589 -1.132139,-2.462685 -2.096221,-5.023079 -2.885437,-7.656709 -0.07023,-0.234319 -0.66634,-2.323113 -0.692612,-2.798134 l 0.685983,0.455821 c 1.811132,1.409793 3.628708,2.810403 5.484103,4.141653 5.61781,4.0308 9.153497,6.280568 15.201402,9.775842 2.45549,1.419103 4.965586,2.709224 7.448376,4.063836 2.35981,1.135178 4.7057,2.30957 7.07944,3.405539 4.30679,1.988469 7.21335,3.205208 11.56119,4.788009 3.87329,1.410039 7.8006,2.577431 11.74393,3.689949 3.24284,0.866133 1.72005,0.470905 4.56687,1.193335 l -2.78026,-2.421331 v 0 c -2.57343,-0.48399 -1.19015,-0.208336 -4.14755,-0.842033 -2.78072,-0.666193 -3.7573,-0.867516 -6.63515,-1.70936 -7.56961,-2.214286 -14.96197,-5.15859 -22.11612,-8.771399 -5.092755,-2.758781 -9.125562,-4.797635 -13.99678,-7.985062 -2.120002,-1.387197 -4.189891,-2.877131 -6.227364,-4.41969 -1.51277,-1.145309 -2.97151,-2.384294 -4.417214,-3.639265 -0.755284,-0.655642 -1.371911,-1.526636 -2.181822,-2.089168 -1.510467,-1.04911 -3.157962,-1.810883 -4.736944,-2.716324 -0.0076,0.274719 -0.07285,0.555396 -0.02287,0.82416 0.08457,0.454676 1.025509,3.194493 1.100954,3.409287 0.948796,2.701156 1.982017,5.366539 3.236702,7.900899 0.54277,1.054492 1.063179,2.124686 1.62831,3.163481 1.974839,3.630065 4.172257,7.143068 6.773378,10.219716 0.890813,1.053664 1.773933,2.139089 2.810333,2.998162 1.718086,1.424123 3.610202,2.546714 5.415302,3.820074 1.091513,0.523838 2.142932,1.176335 3.274532,1.571516 3.350127,1.16997 7.346143,1.308079 10.704843,0.101244 2.81471,-1.011376 3.52578,-1.996762 5.82216,-4.006779 1.89787,-2.185818 3.0414,-3.157563 4.29712,-5.911474 0.43315,-0.949933 0.67534,-2.00201 0.94896,-3.027651 0.28364,-1.063175 0.56936,-2.133283 0.72093,-3.231731 0.30381,-2.20173 0.13722,-4.712443 0.0774,-6.909918 -0.77518,-10.022285 -1.51705,-20.148831 -0.22828,-30.16246 0.25329,-1.532746 0.4643,-3.075569 0.75986,-4.598245 0.7855,-4.046678 1.95991,-8.098312 4.34109,-11.29573 0.30456,-0.40896 0.6772,-0.743523 1.01579,-1.115286 0.40937,-0.28012 1.21379,-0.722354 1.89657,-0.815517 0.41123,0.543638 0.71553,2.886863 0.71553,2.886863 -0.004,0.48386 -0.0798,0.963383 -0.11967,1.445074 -0.35298,1.540552 -0.37057,1.91364 -1.02665,3.416049 -1.37949,3.158996 -3.54144,5.675523 -6.08504,7.616762 -0.77552,0.540295 -1.53541,1.111533 -2.32655,1.620891 -2.04353,1.315668 -3.53589,2.089173 -5.69439,3.174976 -3.19631,1.607863 -6.45255,3.066467 -9.83463,4.076949 -2.614749,0.63689 -4.204778,1.213708 -6.863181,1.323942 z"
       sodipodi:nodetypes="csscsscccscsscssccscssscccccssscsscssscsscssccscsscsscsscscssscscscssscssscsscsscssscsccsscsscccscscssssccscssscsscsssccssccccscssccc"
       inkscape:label="G" />
  </g>
</svg>
